ffmpeg started on 2026-04-07 at 22:14:14
Report written to "ffmpeg-20260407-221414.log"
Log level: 32
Command line:
/opt/homebrew/bin/ffmpeg -y -loglevel repeat+info -i file:/Users/sudiptabag/Downloads/test2//Watches_of_Famous_Indian_Personalities_-_Rolex_Casio_Apple_watch_Best_luxury_watches_India.f137.mp4 -i file:/Users/sudiptabag/Downloads/test2//Watches_of_Famous_Indian_Personalities_-_Rolex_Casio_Apple_watch_Best_luxury_watches_India.f140.m4a -c copy -map 0:v:0 -map 1:a:0 -movflags +faststart -c:v h264_videotoolbox -b:v 8M file:/Users/sudiptabag/Downloads/test2//Watches_of_Famous_Indian_Personalities_-_Rolex_Casio_Apple_watch_Best_luxury_watches_India.temp.mp4
ffmpeg version 8.1 Copyright (c) 2000-2026 the FFmpeg developers
  built with Apple clang version 21.0.0 (clang-2100.0.123.102)
  configuration: --prefix=/opt/homebrew/Cellar/ffmpeg/8.1 --enable-shared --enable-pthreads --enable-version3 --cc=clang --host-cflags= --host-ldflags= --enable-ffplay --enable-gpl --enable-libsvtav1 --enable-libopus --enable-libx264 --enable-libmp3lame --enable-libdav1d --enable-libvmaf --enable-libvpx --enable-libx265 --enable-openssl --enable-videotoolbox --enable-audiotoolbox --enable-neon
  libavutil      60. 26.100 / 60. 26.100
  libavcodec     62. 28.100 / 62. 28.100
  libavformat    62. 12.100 / 62. 12.100
  libavdevice    62.  3.100 / 62.  3.100
  libavfilter    11. 14.100 / 11. 14.100
  libswscale      9.  5.100 /  9.  5.100
  libswresample   6.  3.100 /  6.  3.100
Input #0, mov,mp4,m4a,3gp,3g2,mj2, from 'file:/Users/sudiptabag/Downloads/test2//Watches_of_Famous_Indian_Personalities_-_Rolex_Casio_Apple_watch_Best_luxury_watches_India.f137.mp4':
  Metadata:
    major_brand     : dash
    minor_version   : 0
    compatible_brands: iso6avc1mp41
    creation_time   : 2025-01-16T08:11:49.000000Z
  Duration: 00:06:58.73, start: 0.000000, bitrate: 1216 kb/s
  Stream #0:0[0x1](und): Video: h264 (High) (avc1 / 0x31637661), yuv420p(tv, bt709, progressive), 1920x1080 [SAR 1:1 DAR 16:9], 868 kb/s, 30 fps, 30 tbr, 15360 tbn (default)
    Metadata:
      creation_time   : 2025-01-16T08:11:49.000000Z
      handler_name    : ISO Media file produced by Google Inc.
Input #1, mov,mp4,m4a,3gp,3g2,mj2, from 'file:/Users/sudiptabag/Downloads/test2//Watches_of_Famous_Indian_Personalities_-_Rolex_Casio_Apple_watch_Best_luxury_watches_India.f140.m4a':
  Metadata:
    major_brand     : dash
    minor_version   : 0
    compatible_brands: iso6mp41
    creation_time   : 2025-01-16T08:07:22.000000Z
    encoder         : Google
  Duration: 00:06:58.82, start: 0.000000, bitrate: 129 kb/s
  Stream #1:0[0x1](eng): Audio: aac (LC) (mp4a / 0x6134706D), 44100 Hz, stereo, fltp, 128 kb/s (default)
    Metadata:
      creation_time   : 2025-01-16T08:07:22.000000Z
      handler_name    : ISO Media file produced by Google Inc.
[vost#0:0 @ 0x82ccb8000] Multiple -codec/-c/-acodec/-vcodec/-scodec/-dcodec options specified for stream 0, only the last option '-codec:v h264_videotoolbox' will be used.
Stream mapping:
  Stream #0:0 -> #0:0 (h264 (native) -> h264 (h264_videotoolbox))
  Stream #1:0 -> #0:1 (copy)
Press [q] to stop, [?] for help
Output #0, mp4, to 'file:/Users/sudiptabag/Downloads/test2//Watches_of_Famous_Indian_Personalities_-_Rolex_Casio_Apple_watch_Best_luxury_watches_India.temp.mp4':
  Metadata:
    major_brand     : dash
    minor_version   : 0
    compatible_brands: iso6avc1mp41
    encoder         : Lavf62.12.100
  Stream #0:0(und): Video: h264 (avc1 / 0x31637661), yuv420p(tv, bt709, progressive), 1920x1080 [SAR 1:1 DAR 16:9], q=2-31, 8000 kb/s, 30 fps, 15360 tbn (default)
    Metadata:
      encoder         : Lavc62.28.100 h264_videotoolbox
      creation_time   : 2025-01-16T08:11:49.000000Z
      handler_name    : ISO Media file produced by Google Inc.
  Stream #0:1(eng): Audio: aac (LC) (mp4a / 0x6134706D), 44100 Hz, stereo, fltp, 128 kb/s (default)
    Metadata:
      creation_time   : 2025-01-16T08:07:22.000000Z
      handler_name    : ISO Media file produced by Google Inc.
frame=   71 fps=0.0 q=-0.0 size=    1536KiB time=00:00:02.33 bitrate=5392.8kbits/s speed=4.66x elapsed=0:00:00.50    frame=  175 fps=174 q=-0.0 size=    4864KiB time=00:00:05.80 bitrate=6870.0kbits/s speed=5.77x elapsed=0:00:01.00    frame=  279 fps=185 q=-0.0 size=    9216KiB time=00:00:09.26 bitrate=8147.3kbits/s speed=6.14x elapsed=0:00:01.50    frame=  384 fps=191 q=-0.0 size=   12032KiB time=00:00:12.76 bitrate=7720.6kbits/s speed=6.34x elapsed=0:00:02.01    frame=  489 fps=194 q=-0.0 size=   15104KiB time=00:00:16.26 bitrate=7606.5kbits/s speed=6.46x elapsed=0:00:02.51    frame=  593 fps=196 q=-0.0 size=   18432KiB time=00:00:19.73 bitrate=7651.8kbits/s speed=6.53x elapsed=0:00:03.02    frame=  697 fps=198 q=-0.0 size=   20992KiB time=00:00:23.20 bitrate=7412.4kbits/s speed=6.58x elapsed=0:00:03.52    frame=  802 fps=199 q=-0.0 size=   24320KiB time=00:00:26.70 bitrate=7461.8kbits/s speed=6.63x elapsed=0:00:04.02    frame=  906 fps=200 q=-0.0 size=   27904KiB time=00:00:30.16 bitrate=7577.6kbits/s speed=6.65x elapsed=0:00:04.53    frame= 1010 fps=201 q=-0.0 size=   31744KiB time=00:00:33.63 bitrate=7731.8kbits/s speed=6.68x elapsed=0:00:05.03    frame= 1114 fps=201 q=-0.0 size=   35328KiB time=00:00:37.10 bitrate=7800.7kbits/s speed= 6.7x elapsed=0:00:05.54    frame= 1217 fps=201 q=-0.0 size=   39168KiB time=00:00:40.53 bitrate=7916.1kbits/s speed=6.71x elapsed=0:00:06.04    frame= 1321 fps=202 q=-0.0 size=   43008KiB time=00:00:44.00 bitrate=8007.3kbits/s speed=6.72x elapsed=0:00:06.54    frame= 1424 fps=202 q=-0.0 size=   46080KiB time=00:00:47.43 bitrate=7958.3kbits/s speed=6.73x elapsed=0:00:07.05    frame= 1528 fps=202 q=-0.0 size=   49920KiB time=00:00:50.90 bitrate=8034.3kbits/s speed=6.73x elapsed=0:00:07.55    frame= 1631 fps=202 q=-0.0 size=   53504KiB time=00:00:54.33 bitrate=8067.0kbits/s speed=6.74x elapsed=0:00:08.06    frame= 1734 fps=203 q=-0.0 size=   56576KiB time=00:00:57.76 bitrate=8023.2kbits/s speed=6.75x elapsed=0:00:08.56    frame= 1830 fps=202 q=-0.0 size=   57600KiB time=00:01:00.96 bitrate=7739.6kbits/s speed=6.72x elapsed=0:00:09.06    frame= 1934 fps=202 q=-0.0 size=   59648KiB time=00:01:04.43 bitrate=7583.6kbits/s speed=6.73x elapsed=0:00:09.57    frame= 2038 fps=202 q=-0.0 size=   60928KiB time=00:01:07.90 bitrate=7350.8kbits/s speed=6.74x elapsed=0:00:10.07    frame= 2142 fps=202 q=-0.0 size=   65024KiB time=00:01:11.36 bitrate=7463.9kbits/s speed=6.74x elapsed=0:00:10.58    frame= 2244 fps=202 q=-0.0 size=   71680KiB time=00:01:14.76 bitrate=7853.8kbits/s speed=6.74x elapsed=0:00:11.08    frame= 2348 fps=203 q=-0.0 size=   75776KiB time=00:01:18.23 bitrate=7934.7kbits/s speed=6.75x elapsed=0:00:11.59    frame= 2452 fps=203 q=-0.0 size=   78336KiB time=00:01:21.70 bitrate=7854.7kbits/s speed=6.75x elapsed=0:00:12.09    frame= 2556 fps=203 q=-0.0 size=   82944KiB time=00:01:25.16 bitrate=7978.2kbits/s speed=6.76x elapsed=0:00:12.60    frame= 2659 fps=203 q=-0.0 size=   87040KiB time=00:01:28.60 bitrate=8047.8kbits/s speed=6.76x elapsed=0:00:13.10    frame= 2763 fps=203 q=-0.0 size=   90624KiB time=00:01:32.06 bitrate=8063.6kbits/s speed=6.77x elapsed=0:00:13.60    frame= 2865 fps=203 q=-0.0 size=   94464KiB time=00:01:35.46 bitrate=8106.0kbits/s speed=6.77x elapsed=0:00:14.10    frame= 2968 fps=203 q=-0.0 size=   98048KiB time=00:01:38.90 bitrate=8121.4kbits/s speed=6.77x elapsed=0:00:14.61    frame= 3072 fps=203 q=-0.0 size=  100608KiB time=00:01:42.36 bitrate=8051.3kbits/s speed=6.77x elapsed=0:00:15.11    frame= 3176 fps=203 q=-0.0 size=  102912KiB time=00:01:45.83 bitrate=7965.9kbits/s speed=6.78x elapsed=0:00:15.61    frame= 3279 fps=203 q=-0.0 size=  107008KiB time=00:01:49.26 bitrate=8022.7kbits/s speed=6.78x elapsed=0:00:16.12    frame= 3383 fps=203 q=-0.0 size=  110592KiB time=00:01:52.73 bitrate=8036.4kbits/s speed=6.78x elapsed=0:00:16.62    frame= 3487 fps=204 q=-0.0 size=  114176KiB time=00:01:56.20 bitrate=8049.3kbits/s speed=6.78x elapsed=0:00:17.13    frame= 3591 fps=204 q=-0.0 size=  117248KiB time=00:01:59.66 bitrate=8026.4kbits/s speed=6.78x elapsed=0:00:17.63    frame= 3694 fps=204 q=-0.0 size=  120064KiB time=00:02:03.10 bitrate=7990.0kbits/s speed=6.79x elapsed=0:00:18.14    frame= 3798 fps=204 q=-0.0 size=  123648KiB time=00:02:06.56 bitrate=8003.1kbits/s speed=6.79x elapsed=0:00:18.64    frame= 3902 fps=204 q=-0.0 size=  126976KiB time=00:02:10.03 bitrate=7999.4kbits/s speed=6.79x elapsed=0:00:19.15    frame= 4006 fps=204 q=-0.0 size=  131328KiB time=00:02:13.50 bitrate=8058.7kbits/s speed=6.79x elapsed=0:00:19.65    frame= 4110 fps=204 q=-0.0 size=  135168KiB time=00:02:16.96 bitrate=8084.4kbits/s speed=6.79x elapsed=0:00:20.16    frame= 4213 fps=204 q=-0.0 size=  138240KiB time=00:02:20.40 bitrate=8066.0kbits/s speed=6.79x elapsed=0:00:20.66    frame= 4317 fps=204 q=-0.0 size=  141568KiB time=00:02:23.86 bitrate=8061.1kbits/s speed= 6.8x elapsed=0:00:21.17    frame= 4420 fps=204 q=-0.0 size=  145920KiB time=00:02:27.30 bitrate=8115.3kbits/s speed= 6.8x elapsed=0:00:21.67    frame= 4522 fps=204 q=-0.0 size=  149504KiB time=00:02:30.70 bitrate=8127.0kbits/s speed=6.79x elapsed=0:00:22.17    frame= 4626 fps=204 q=-0.0 size=  151808KiB time=00:02:34.16 bitrate=8066.7kbits/s speed= 6.8x elapsed=0:00:22.68    frame= 4730 fps=204 q=-0.0 size=  155392KiB time=00:02:37.63 bitrate=8075.5kbits/s speed= 6.8x elapsed=0:00:23.18    frame= 4833 fps=204 q=-0.0 size=  157696KiB time=00:02:41.06 bitrate=8020.6kbits/s speed= 6.8x elapsed=0:00:23.69    frame= 4937 fps=204 q=-0.0 size=  161024KiB time=00:02:44.53 bitrate=8017.3kbits/s speed= 6.8x elapsed=0:00:24.19    frame= 5040 fps=204 q=-0.0 size=  163584KiB time=00:02:47.96 bitrate=7978.3kbits/s speed= 6.8x elapsed=0:00:24.69    frame= 5143 fps=204 q=-0.0 size=  167168KiB time=00:02:51.40 bitrate=7989.7kbits/s speed= 6.8x elapsed=0:00:25.19    frame= 5246 fps=204 q=-0.0 size=  172032KiB time=00:02:54.83 bitrate=8060.7kbits/s speed= 6.8x elapsed=0:00:25.70    frame= 5349 fps=204 q=-0.0 size=  175872KiB time=00:02:58.26 bitrate=8082.0kbits/s speed= 6.8x elapsed=0:00:26.20    frame= 5452 fps=204 q=-0.0 size=  179456KiB time=00:03:01.70 bitrate=8090.8kbits/s speed= 6.8x elapsed=0:00:26.71    frame= 5556 fps=204 q=-0.0 size=  182272KiB time=00:03:05.16 bitrate=8063.9kbits/s speed= 6.8x elapsed=0:00:27.21    frame= 5659 fps=204 q=-0.0 size=  186112KiB time=00:03:08.60 bitrate=8083.9kbits/s speed= 6.8x elapsed=0:00:27.71    frame= 5763 fps=204 q=-0.0 size=  189952KiB time=00:03:12.06 bitrate=8101.8kbits/s speed=6.81x elapsed=0:00:28.21    frame= 5866 fps=204 q=-0.0 size=  193536KiB time=00:03:15.50 bitrate=8109.7kbits/s speed=6.81x elapsed=0:00:28.72    frame= 5958 fps=204 q=-0.0 size=  196864KiB time=00:03:18.56 bitrate=8121.8kbits/s speed=6.79x elapsed=0:00:29.22    frame= 6060 fps=204 q=-0.0 size=  200448KiB time=00:03:21.96 bitrate=8130.4kbits/s speed=6.79x elapsed=0:00:29.72    frame= 6164 fps=204 q=-0.0 size=  203520KiB time=00:03:25.43 bitrate=8115.7kbits/s speed= 6.8x elapsed=0:00:30.23    frame= 6269 fps=204 q=-0.0 size=  206592KiB time=00:03:28.93 bitrate=8100.2kbits/s speed= 6.8x elapsed=0:00:30.73    frame= 6373 fps=204 q=-0.0 size=  209920KiB time=00:03:32.40 bitrate=8096.4kbits/s speed= 6.8x elapsed=0:00:31.24    frame= 6477 fps=204 q=-0.0 size=  212736KiB time=00:03:35.86 bitrate=8073.2kbits/s speed= 6.8x elapsed=0:00:31.74    frame= 6580 fps=204 q=-0.0 size=  216064KiB time=00:03:39.30 bitrate=8071.1kbits/s speed= 6.8x elapsed=0:00:32.24    frame= 6682 fps=204 q=-0.0 size=  219904KiB time=00:03:42.70 bitrate=8089.2kbits/s speed= 6.8x elapsed=0:00:32.75    frame= 6785 fps=204 q=-0.0 size=  223488KiB time=00:03:46.13 bitrate=8096.2kbits/s speed= 6.8x elapsed=0:00:33.25    frame= 6878 fps=204 q=-0.0 size=  225536KiB time=00:03:49.23 bitrate=8059.9kbits/s speed=6.79x elapsed=0:00:33.75    frame= 6983 fps=204 q=-0.0 size=  228864KiB time=00:03:52.73 bitrate=8055.8kbits/s speed=6.79x elapsed=0:00:34.26    frame= 7087 fps=204 q=-0.0 size=  232448KiB time=00:03:56.20 bitrate=8061.9kbits/s speed=6.79x elapsed=0:00:34.76    frame= 7192 fps=204 q=-0.0 size=  236032KiB time=00:03:59.70 bitrate=8066.6kbits/s speed= 6.8x elapsed=0:00:35.26    frame= 7295 fps=204 q=-0.0 size=  239616KiB time=00:04:03.13 bitrate=8073.5kbits/s speed= 6.8x elapsed=0:00:35.77    frame= 7399 fps=204 q=-0.0 size=  243712KiB time=00:04:06.60 bitrate=8096.1kbits/s speed= 6.8x elapsed=0:00:36.28    frame= 7503 fps=204 q=-0.0 size=  247040KiB time=00:04:10.06 bitrate=8092.9kbits/s speed= 6.8x elapsed=0:00:36.78    frame= 7607 fps=204 q=-0.0 size=  249600KiB time=00:04:13.53 bitrate=8064.9kbits/s speed= 6.8x elapsed=0:00:37.29    frame= 7711 fps=204 q=-0.0 size=  252928KiB time=00:04:17.00 bitrate=8062.2kbits/s speed= 6.8x elapsed=0:00:37.79    frame= 7814 fps=204 q=-0.0 size=  256768KiB time=00:04:20.43 bitrate=8076.7kbits/s speed= 6.8x elapsed=0:00:38.29    frame= 7918 fps=204 q=-0.0 size=  260608KiB time=00:04:23.90 bitrate=8089.8kbits/s speed= 6.8x elapsed=0:00:38.80    frame= 8022 fps=204 q=-0.0 size=  264192KiB time=00:04:27.36 bitrate=8094.7kbits/s speed= 6.8x elapsed=0:00:39.30    frame= 8125 fps=204 q=-0.0 size=  267776KiB time=00:04:30.80 bitrate=8100.5kbits/s speed= 6.8x elapsed=0:00:39.80    frame= 8229 fps=204 q=-0.0 size=  271104KiB time=00:04:34.26 bitrate=8097.5kbits/s speed= 6.8x elapsed=0:00:40.31    frame= 8333 fps=204 q=-0.0 size=  274432KiB time=00:04:37.73 bitrate=8094.6kbits/s speed= 6.8x elapsed=0:00:40.81    frame= 8436 fps=204 q=-0.0 size=  276992KiB time=00:04:41.16 bitrate=8070.4kbits/s speed= 6.8x elapsed=0:00:41.32    frame= 8540 fps=204 q=-0.0 size=  280320KiB time=00:04:44.63 bitrate=8067.9kbits/s speed=6.81x elapsed=0:00:41.82    frame= 8644 fps=204 q=-0.0 size=  284672KiB time=00:04:48.10 bitrate=8094.5kbits/s speed=6.81x elapsed=0:00:42.32    frame= 8747 fps=204 q=-0.0 size=  288256KiB time=00:04:51.53 bitrate=8099.9kbits/s speed=6.81x elapsed=0:00:42.82    frame= 8850 fps=204 q=-0.0 size=  291840KiB time=00:04:54.96 bitrate=8105.2kbits/s speed=6.81x elapsed=0:00:43.32    frame= 8952 fps=204 q=-0.0 size=  294912KiB time=00:04:58.36 bitrate=8097.1kbits/s speed=6.81x elapsed=0:00:43.82    frame= 9056 fps=204 q=-0.0 size=  297984KiB time=00:05:01.83 bitrate=8087.5kbits/s speed=6.81x elapsed=0:00:44.33    frame= 9159 fps=204 q=-0.0 size=  301312KiB time=00:05:05.26 bitrate=8085.9kbits/s speed=6.81x elapsed=0:00:44.83    frame= 9263 fps=204 q=-0.0 size=  305152KiB time=00:05:08.73 bitrate=8097.0kbits/s speed=6.81x elapsed=0:00:45.33    frame= 9366 fps=204 q=-0.0 size=  308736KiB time=00:05:12.16 bitrate=8102.0kbits/s speed=6.81x elapsed=0:00:45.83    frame= 9469 fps=204 q=-0.0 size=  311808KiB time=00:05:15.60 bitrate=8093.6kbits/s speed=6.81x elapsed=0:00:46.34    frame= 9573 fps=204 q=-0.0 size=  314368KiB time=00:05:19.06 bitrate=8071.4kbits/s speed=6.81x elapsed=0:00:46.84    frame= 9676 fps=204 q=-0.0 size=  318208KiB time=00:05:22.50 bitrate=8083.0kbits/s speed=6.81x elapsed=0:00:47.35    frame= 9780 fps=204 q=-0.0 size=  322048KiB time=00:05:25.96 bitrate=8093.5kbits/s speed=6.81x elapsed=0:00:47.85    frame= 9882 fps=204 q=-0.0 size=  325888KiB time=00:05:29.36 bitrate=8105.5kbits/s speed=6.81x elapsed=0:00:48.35    frame= 9984 fps=204 q=-0.0 size=  329216KiB time=00:05:32.76 bitrate=8104.6kbits/s speed=6.81x elapsed=0:00:48.85    frame=10087 fps=204 q=-0.0 size=  332544KiB time=00:05:36.20 bitrate=8102.9kbits/s speed=6.81x elapsed=0:00:49.36    frame=10191 fps=204 q=-0.0 size=  336128KiB time=00:05:39.66 bitrate=8106.7kbits/s speed=6.81x elapsed=0:00:49.86    frame=10295 fps=204 q=-0.0 size=  339712KiB time=00:05:43.13 bitrate=8110.3kbits/s speed=6.81x elapsed=0:00:50.37    frame=10399 fps=204 q=-0.0 size=  341248KiB time=00:05:46.60 bitrate=8065.5kbits/s speed=6.81x elapsed=0:00:50.87    frame=10502 fps=204 q=-0.0 size=  344832KiB time=00:05:50.03 bitrate=8070.3kbits/s speed=6.81x elapsed=0:00:51.38    frame=10604 fps=204 q=-0.0 size=  349440KiB time=00:05:53.43 bitrate=8099.4kbits/s speed=6.81x elapsed=0:00:51.88    frame=10707 fps=204 q=-0.0 size=  352512KiB time=00:05:56.86 bitrate=8092.0kbits/s speed=6.81x elapsed=0:00:52.39    frame=10809 fps=204 q=-0.0 size=  356352KiB time=00:06:00.26 bitrate=8103.0kbits/s speed=6.81x elapsed=0:00:52.89    frame=10912 fps=204 q=-0.0 size=  359936KiB time=00:06:03.70 bitrate=8107.2kbits/s speed=6.81x elapsed=0:00:53.39    frame=11014 fps=204 q=-0.0 size=  363008KiB time=00:06:07.10 bitrate=8100.7kbits/s speed=6.81x elapsed=0:00:53.89    frame=11117 fps=204 q=-0.0 size=  366336KiB time=00:06:10.53 bitrate=8099.2kbits/s speed=6.81x elapsed=0:00:54.40    frame=11222 fps=204 q=-0.0 size=  370176KiB time=00:06:14.03 bitrate=8107.5kbits/s speed=6.81x elapsed=0:00:54.90    frame=11326 fps=204 q=-0.0 size=  373760KiB time=00:06:17.50 bitrate=8110.8kbits/s speed=6.81x elapsed=0:00:55.41    frame=11429 fps=204 q=-0.0 size=  377344KiB time=00:06:20.93 bitrate=8114.8kbits/s speed=6.81x elapsed=0:00:55.91    frame=11532 fps=204 q=-0.0 size=  380928KiB time=00:06:24.36 bitrate=8118.7kbits/s speed=6.81x elapsed=0:00:56.41    frame=11636 fps=204 q=-0.0 size=  384512KiB time=00:06:27.83 bitrate=8121.8kbits/s speed=6.81x elapsed=0:00:56.91    frame=11719 fps=204 q=-0.0 size=  386816KiB time=00:06:30.60 bitrate=8112.6kbits/s speed= 6.8x elapsed=0:00:57.41    frame=11823 fps=204 q=-0.0 size=  389888KiB time=00:06:34.06 bitrate=8105.1kbits/s speed= 6.8x elapsed=0:00:57.92    frame=11927 fps=204 q=-0.0 size=  393728KiB time=00:06:37.53 bitrate=8113.6kbits/s speed= 6.8x elapsed=0:00:58.42    frame=12030 fps=204 q=-0.0 size=  397568KiB time=00:06:40.96 bitrate=8122.6kbits/s speed= 6.8x elapsed=0:00:58.92    frame=12133 fps=204 q=-0.0 size=  401152KiB time=00:06:44.40 bitrate=8126.2kbits/s speed= 6.8x elapsed=0:00:59.42    frame=12237 fps=204 q=-0.0 size=  404480KiB time=00:06:47.86 bitrate=8124.0kbits/s speed=6.81x elapsed=0:00:59.93    frame=12341 fps=204 q=-0.0 size=  408064KiB time=00:06:51.33 bitrate=8126.9kbits/s speed=6.81x elapsed=0:01:00.43    frame=12445 fps=204 q=-0.0 size=  411136KiB time=00:06:54.80 bitrate=8119.6kbits/s speed=6.81x elapsed=0:01:00.94    frame=12548 fps=204 q=-0.0 size=  411904KiB time=00:06:58.23 bitrate=8068.0kbits/s speed=6.81x elapsed=0:01:01.44    [mp4 @ 0x82d023980] Starting second pass: moving the moov atom to the beginning of the file
[out#0/mp4 @ 0x82d050480] video:405613KiB audio:6544KiB subtitle:0KiB other streams:0KiB global headers:0KiB muxing overhead: 0.085266%
frame=12562 fps=203 q=-0.0 Lsize=  412509KiB time=00:06:58.70 bitrate=8070.9kbits/s speed=6.77x elapsed=0:01:01.82    
